<svg id="Capa_1" data-name="Capa 1" xmlns="http://www.w3.org/2000/svg" viewBox="0 0 1024 759.49"><defs><style>.cls-1{fill:#3e3f3a;}</style></defs><title>esp</title><path class="cls-1" d="M115.7,135.3a7.56,7.56,0,0,1-4.6,4.5c-3.3,1.2-3.8.8-5-3.3l-.6-2.4-4.4,3c-2.5,1.6-5.2,2.8-6,2.7A3.25,3.25,0,0,0,91,143c0,1.2-1.6,3-4,4.5a21,21,0,0,0-5.5,4.9,8,8,0,0,1-5.5,3.1c-2.7.5-3.9,1.2-3.8,2.3a37.81,37.81,0,0,1-.7,5.4c-.6,3-.5,3.8.7,3.8a4.35,4.35,0,0,1,2.8,1.5,5.4,5.4,0,0,0,3.6,1.5c2.1,0,2.2.3,1.7,3.7a19.1,19.1,0,0,1-1,4.3c-.2.2-2.1-1.5-4.1-3.7s-4.6-4.3-5.8-4.5-3.8,1.2-6.5,3.6a32.25,32.25,0,0,1-18.2,8.3c-4.4.4-5.5.2-7.1-1.6-2.9-3.2-7.1-2.7-10.6,1.1-1.8,2.1-2.7,4.1-2.4,5.3.3,1.6-.6,2.5-4.4,4.3-2.6,1.2-5.7,2.2-6.9,2.2a9.4,9.4,0,0,0-5,2.5c-2.6,2.3-2.7,2.6-1.1,3.9C9.1,200.8,8.6,202,6,202c-.9,0-2.6,1-3.8,2.3-1.9,2-2.2,3.5-2.2,10.8,0,10.1,1.1,12.6,3.4,8,1.7-3.2,2.3-3.5,5-2.5,2.1.8,4.4,11,2.8,12.6-1.8,1.8-1.5,2.6,1.5,4.1,3.3,1.5,6.7,1.2,8.3-.9a4.72,4.72,0,0,1,3.2-1.4c1.8,0,1.7.3-.9,2.7a21,21,0,0,0-4.2,6.3c-.7,1.9-2,5.2-2.8,7.2-1.3,3.1-1.4,4.2-.3,6.8,1.8,4.3,4.2,3.8,8.2-1.9,2.8-4,3.7-4.7,5.1-4,2.3,1.4,3.7.3,3.7-2.8,0-2.5,0-2.6,2-.8a6,6,0,0,1,2,2.9c0,1.1-3.6,10.9-5.1,13.9-.5.9-.6,3.5-.3,5.7.6,3.9.8,4,4.7,4h4l-2.7,2.5c-1.4,1.3-2.6,3.3-2.6,4.5s-1.8,3.8-4,6c-4.4,4.3-5.2,6-1.8,3.6a8.78,8.78,0,0,1,4.4-1.6,25.17,25.17,0,0,0,6.9-2c5.4-2.3,6.5-2.5,6.5-.8,0,.7-2.3,2.8-5,4.7s-5,3.8-5,4.3-1.1,1.4-2.5,2c-2,.9-2.3,1.4-1.3,2.5s.9,1.7-.3,2.4a6.22,6.22,0,0,1-2.6.9c-1,0-1.3,2.7-1.3,10v10.1l2.8-1.5a18,18,0,0,0,4.6-3.5,6.75,6.75,0,0,1,4.2-2.1c1.4,0,3.6-1.4,5.4-3.4s4.4-3.6,6.3-3.9,5.2-1,7.7-1.6,6.6-1.5,9.3-2,5.6-1.6,6.6-2.5c1.8-1.7,2-1.7,4,.3A7.42,7.42,0,0,0,83,306c1.2,0,5,3.7,5,4.9,0,.5-1.3,1.4-2.9,2.1-2.7,1.1-8.1,7.7-8.1,9.9,0,.5.9,1.3,2,1.6,1.5.5,2,1.5,2,4,0,6.9,7.4,6.2,15.3-1.3l3.8-3.7,2,2.7,2,2.8,4-2.1a10.74,10.74,0,0,1,7.7-1.3c5,.9,9.2,3.1,9.2,4.9,0,2.3,1.8,1.8,4.6-1.2l2.6-2.8L135,330c2.3,2.8,3.1,3.3,4.1,2.2.7-.6,3.4-1.2,6.1-1.2,3.8,0,5.4-.6,8.2-3,3.1-2.7,3.4-3.4,2.9-7l-.6-4h3.9a8.59,8.59,0,0,1,5.9,2c2.1,2,2.3,2,5.3.3,2.6-1.5,3.5-1.6,5.2-.6a6.58,6.58,0,0,0,8.1-.3c1.6-1.4,2-1.4,4.8.7,2.6,1.9,3.8,2.1,9,1.6l6.1-.7v3.4a7.17,7.17,0,0,0,2,5.1c1.9,1.8,1.9,1.8.1,4.9-2.6,4.3-3.5,10.3-2,13.7l1.2,2.9,9.1-.6,9.1-.6,2.8,4.6,2.9,4.6-5.5,9.8a69.57,69.57,0,0,1-12,16c-6,5.7-6.9,6.2-11,6.2s-4.8.3-8.6,5.1c-2.7,3.4-4.1,6.2-4.1,8.1a11.43,11.43,0,0,1-2.1,5.9c-1.7,2.4-2.8,2.9-6.1,2.9-3.9,0-4,.1-3.5,2.9a39.37,39.37,0,0,0,3.8,8.1c2.9,4.7,3.2,5.9,3,12.4-.1,4,.3,8.5,1,9.9,1,2.1,1,3.6,0,6.8s-1,4.4,0,5.5.9,2.4,0,5.3c-1.4,4.8-1.4,7.6,0,9.9.8,1.3.9,3.6.3,7.6l-.9,5.8-5.5,2.2c-4.4,1.8-6,3-7.8,6.4-2.9,5.2-2.3,7.8,2.1,8.6,4.8.9,7.4,7.5,6.9,17.8-.3,7.3-.5,7.7-3.2,8.8a5,5,0,0,0-3.4,4.1c-.3,1.6-.8,4.2-1.1,5.8-.5,2.2-1.4,3-4.3,3.9-8,2.4-17.8,3.5-22.8,2.5a42.25,42.25,0,0,0-10.1-.6l-5.1.5,1,3.1c.6,1.9,4.2,6.3,9,10.8l8.1,7.6-1.8,3.1c-1.9,3.1-1.8,3.2.5,8.2a27,27,0,0,0,3.7,6.2c.7.6,1.3,2.6,1.3,4.5,0,2.7.9,4.4,4.8,8.3,4.5,4.5,4.9,4.7,7.2,3.5s2.8-1.1,5.3,1.3c3.7,3.5,3.6,8.3-.2,14.1-2.3,3.5-2.8,4.9-2,6.8.8,2.2.1,2.9-8,8.9-9.5,6.9-10.4,8.3-10,16a21.35,21.35,0,0,1-2,8.4c-2.6,5.6-2.6,8-.2,8.7,1.2.3,3.6,3.7,6.2,8.9,2.4,4.7,5.2,9.2,6.2,10.2a11.16,11.16,0,0,1,2.8,4c1,2.6,3.1,2.8,8.8.7l4.1-1.4-1.5,2.3c-.9,1.3-2,5.2-2.6,8.7s-1.5,6.7-2.1,7-2.4.2-4-.3c-2.5-.9-3.3-.7-5.2,1.1a8.58,8.58,0,0,1-5.3,2.1c-2.9,0-3.1.2-4.3,6.2-1,5.4-1.9,6.9-7,12.2s-5.9,6.7-6.5,11.5a34.73,34.73,0,0,1-3.1,9.9c-3.1,5.7-3,6.3.9,8.7l3.2,2,.3,13.3.3,13.2h4.5a19.36,19.36,0,0,0,7.6-1.6c2.6-1.4,4.9-1.5,13.2-.9,10,.7,14,1.9,16.5,4.9A6.1,6.1,0,0,0,183,790c1.5,0,4.4,1.3,6.6,3.1a70.92,70.92,0,0,0,8.9,5.6c8.6,4.4,11.4,7.2,15.1,14.9s4.1,10.3,2.3,12.1c-.9.9-.9,2.3.1,5.7,1.1,4.1,1.6,4.6,6.2,6.3,2.7.9,5.3,2.2,5.7,2.8,1.2,1.5,3.1,10,3.1,13.9,0,1.9.4,3.7.9,4.1s1.7,2.7,2.6,5.4c1,3.2,2.4,5.2,4,5.9a3.92,3.92,0,0,1,2.5,3.5c0,3.7,3.3,6.1,7.3,5.3,4.6-.9,6.3,0,8.8,4.3,1.6,3,3.2,4.1,8.3,5.9a61.32,61.32,0,0,0,12.7,2.8c10.8,1.1,14.6-2.1,23.6-19.3,4.5-8.7,6.8-11.9,10-14.2,2.2-1.6,4.4-3.4,4.7-4s2.8-1.3,5.4-1.7a23.24,23.24,0,0,0,6.7-1.8c1.1-.6,6.3-1.1,11.5-1.1h9.5l.3-2.7c.3-2.3,1.1-2.9,5.5-4.3,3.9-1.3,6.4-3,9.8-6.8l4.5-5,12.5-2.1c15.8-2.5,42-2.7,48.8-.2,6.5,2.4,11.8,2.1,16.3-1,3.2-2.2,4.4-2.5,8.5-2,2.6.3,9.4.9,15.1,1.2,7.5.5,10.5,1,10.9,2s2.6,1.4,8.4,1.4c9.6,0,12.5-1.2,13.3-5.4.9-4.8,6.5-7.6,14.9-7.6,6.4,0,6.5,0,11.3,5s8.7,6.3,9.8,3.5a2.26,2.26,0,0,1,1.9-1.5c1.8,0,6.4-5.6,9.1-11.1,1.2-2.4,3.2-4.8,4.4-5.4a3.72,3.72,0,0,0,2.2-3.3,18.49,18.49,0,0,1,1.8-6c2.7-5.2,4.5-12.8,3.9-15.3-.4-1.6,0-2.3,1.4-2.6,1.1-.3,3.8-3.2,5.9-6.3,4.3-6.4,11.7-12,15.6-12,1.9,0,2.8-.7,3.5-3,.7-1.7,1.8-3,2.8-3s2.8-1.3,4.2-2.9c1.9-2.2,3.8-3,7.8-3.6s5.6-.4,6.1.6c.7,1,1.7,1,5.7,0a106.37,106.37,0,0,1,14.8-2c10.5-.8,13.8-1.9,15.5-5.1.9-1.6.7-2.1-.7-2.6-4.8-1.5-6.5-2.6-8.2-5.5l-1.9-3.1,3.3-3.4a31.29,31.29,0,0,0,5.5-9,43.71,43.71,0,0,1,3.9-8.3A24.79,24.79,0,0,0,651,704c3-11.7,4-13.9,6.8-14.2,1.8-.2,2.8-1,3-2.3a71,71,0,0,1,1.4-7.3c.9-4.3,1.5-5.2,3.3-5.2,1.6,0,2.9-1.3,4.6-4.6,1.9-3.7,3.6-5.2,8.4-7.6a54.9,54.9,0,0,0,7.8-4.6,18.08,18.08,0,0,1,5-2.7c2.1-.7,3.8-2.3,5.1-5,1.8-3.5,2.7-4.1,6.3-4.6a14.18,14.18,0,0,0,7.7-3.7c2-1.8,4.3-3.2,5.1-3.2,2.1,0,2.9-1.9,1.7-4.3a23.46,23.46,0,0,1-1.6-4.9c-.5-2.4-1.5-3-7.9-4.8-10.8-3.2-12.1-3.8-16.5-8.3s-7-11.7-9.1-24.3a45.54,45.54,0,0,0-4.1-11c-3-5.5-3.2-6.4-2.7-13.5s1-8.6,7.8-21.5c4-7.7,9-15.9,11.1-18.3a59.69,59.69,0,0,0,7.2-11.5c2.3-4.8,4.7-8.2,7.5-10.4a27.86,27.86,0,0,0,6.1-7c2.7-4.9,8.8-12.5,12.3-15.2,1.5-1.2,2.7-3,2.7-4.1,0-2.6,2.5-7.5,6.1-11.9,1.6-1.9,2.9-4.7,2.9-6.2,0-3.6,7.4-9.4,13.3-10.3,5.2-.9,8.5-2.6,11.6-5.9,2.6-2.8,2.3-5.6-.7-5.6a6.23,6.23,0,0,1-3.7-2,5.93,5.93,0,0,0-3.1-2c-5.1,0-1.1-6.2,11.4-17.6,11-10,15.6-12.2,19.3-8.8,1.8,1.6,2,1.6,4-1,2.9-3.6,4.1-4.2,19.7-8.6,7.5-2.1,16.4-4.9,19.7-6.1A84.25,84.25,0,0,1,844,391c11.7-1.1,16.5-3.9,21.8-12.8,3-4.9,5.8-8.2,9-10.4,2.6-1.7,6.3-4.4,8.2-5.9,3.5-2.8,10.9-5.9,18.6-7.9a27.26,27.26,0,0,0,8.5-4.3,41.9,41.9,0,0,1,7.7-4.6A10.61,10.61,0,0,0,922,342c.5-1,2.7-2.7,4.7-3.7a13,13,0,0,0,5.1-4.7,10.42,10.42,0,0,1,5-4.1c4.5-1.8,6.9-7.5,5.1-12.2-.6-1.5-.7-4.8-.4-7.4.6-4.4.5-4.7-2.9-7.3-3.2-2.4-3.6-3.2-3.6-7.2,0-4.8.1-4.8,6.5-4.5,3.8.2,4.2,0,6.2-3.8l2.2-4-3.2-1.9a25.77,25.77,0,0,0-5.4-2.6,4.68,4.68,0,0,1-2.8-3.7c-.5-2-1.2-2.9-2.1-2.5s-2.1-.7-3.1-2.5c-2.6-4.4-5.3-4.6-13-1a47.75,47.75,0,0,1-12.5,3.8c-5.6.6-5.8.7-6.4,3.8s-1,3.3-4.7,3.8c-3,.3-4.8-.1-6.2-1.3-2-1.7-12.5-7.3-15.7-8.4a2.3,2.3,0,0,0-2.7,1.3c-1,1.7-11,5.1-15.4,5.1-1.5,0-3.6-1.6-6.1-4.6a26.21,26.21,0,0,0-7.2-6c-5-2.1-13.7-1.8-18.6.7-3.2,1.6-5.4,2-9.5,1.7-6.4-.6-8-1.7-6.4-4.6,1.6-3.1,1.3-12.8-.5-16.5-3.5-6.9-4.8-7.6-12.9-7-6.5.5-7.4.4-8.3-1.4-1.9-3.4-8.5-7.3-12.5-7.3a28.83,28.83,0,0,1-9.3-2.5c-5.7-2.5-11.7-3.2-14.3-1.6-1.4.9-1.2,9.7.4,13.5.8,1.8.4,1.9-8.4,1.3-6.3-.4-9.9-1.1-11-2.1-1.6-1.4-2-1.4-5.1.9l-3.4,2.5-2.6-2.5c-3.4-3.3-10.3-3.4-15.5-.4s-9.5,2-12.4-3.1c-1.8-3.2-3.6-4.7-8.8-7-3.6-1.7-7.3-3-8.2-3s-2.8,1.4-4.2,3.1l-2.5,3.1-3.3-1.7c-3.6-1.8-6.1-1.4-6.1,1,0,.8-.4,1.5-.9,1.5-1.6,0-10-10.2-12-14.5-2.9-6.2-3.9-6.7-10-5.3-4.6,1-5.6.9-9.4-.9-2.3-1.1-7.3-3.3-11.2-4.7-11.5-4.4-11.5-4.4-11.5-6.9,0-2-.4-2.3-3-1.9-2.4.3-3.1,1-3.6,3.8-.5,3-.9,3.4-2.8,2.8-2.7-.8-5.6-3.4-5.6-4.9,0-.6,1.6-2.6,3.5-4.5,3-2.9,3.5-4,3.5-7.9a16.6,16.6,0,0,0-.8-5.8c-.4-.7-3.1-1.7-6-2.4-4.5-.9-5.6-.8-7.9.6-2.1,1.4-2.7,1.5-3.4.4a6.16,6.16,0,0,1-.9-2.7c0-1.5-.6-1.5-3.1-.1-1.7.9-2.6.4-5.7-3a22.88,22.88,0,0,0-6.4-5c-2.3-.9-2.8-.7-3.3,1a8.19,8.19,0,0,1-3.5,3.4c-4.1,2.1-14.6,4.5-20.5,4.6a27.92,27.92,0,0,0-7,.8,6,6,0,0,1-4.5-.4,30.11,30.11,0,0,0-6.2-2,12.39,12.39,0,0,1-5.4-2.6,5.74,5.74,0,0,0-2.8-1.9,18.55,18.55,0,0,1-5.1-2c-3.5-1.8-4.1-1.9-5.1-.5-1.4,1.9-2.4,1.9-2.4.1,0-.8-1.1-2.8-2.4-4.3-2.5-2.8-2.5-2.8-5.6-1.1a16.44,16.44,0,0,1-6.9,1.8,11.66,11.66,0,0,0-5.7,1.5,7.9,7.9,0,0,1-4.1,1.5c-2.8,0-2.8.4-.1,4.3l2.2,3-3.4-.7a11.6,11.6,0,0,1-5-2.1,6.66,6.66,0,0,0-3.7-1.5,5.41,5.41,0,0,1-3.7-2.5c-1.6-2.4-2.1-2.5-11.4-2.5s-13.7-1-11.3-2.4c1.7-1.1,1.3-2-1.7-3.8-2.4-1.4-4.8-1.6-15-1.2-6.8.2-13.9,1.1-16.3,1.9a26.9,26.9,0,0,1-6,1.5c-1,0-3.5,1-5.6,2.2-3.7,2.2-4.6,2.3-25.7,2.1-20.3-.2-22.2-.3-26.5-2.4-3.2-1.6-7.4-2.4-14.1-2.9-5.2-.4-10.8-1.2-12.3-1.9a18.54,18.54,0,0,0-5.4-1.1,7.14,7.14,0,0,1-4.4-1.6c-2.3-2-7-3.1-22.3-4.9-13.6-1.6-14.6-1.9-14.6-3.8,0-.8-1.8-2.8-3.9-4.5l-4-3.2-2,3.4c-3,4.8-5.9,6.5-9.3,5.4a8.63,8.63,0,0,0-5.5,0c-2,.7-3.9.5-6.5-.5-3.3-1.3-4.3-1.3-8.5,0-8.1,2.5-11,2.8-34.3,2.8-12.4,0-24.1.3-26,.7-6.6,1.5-10.7-.3-19.2-8.4-10.4-9.9-15.4-11.8-17.7-6.8l-1.2,2.7-2.4-3.4c-1.4-1.8-2.5-4.1-2.5-5.1a1.62,1.62,0,0,0-1.4-1.8,11.4,11.4,0,0,1-3-.6C117.6,132,116.7,132.9,115.7,135.3Z" transform="translate(0 -132.31)"/><path class="cls-1" d="M1006.8,505.7c-.5,1.8-1.5,2.2-7.4,2.8-3.8.3-7.8.7-8.9.8-2.3.2-3.1,3.9-2,9.4l.6,3.4,5.5-.7c4.7-.5,5.8-.4,7.7,1.4,3.3,3,17.1,10.2,19.5,10.2,1.7,0,2.2-.6,2.2-2.8,0-4.8-2.6-11.9-5.9-16.1-1.7-2.1-3.1-4.6-3.1-5.5,0-1.2-.9-1.6-3.4-1.6s-3.6-.5-3.8-1.8S1007.3,503.9,1006.8,505.7Z" transform="translate(0 -132.31)"/><path class="cls-1" d="M937.9,518c-2.4,1.4-16.9,6-18.9,6-.9,0-3.4,1.3-5.5,3s-4.6,3-5.7,3-4.5,2.4-7.6,5.3-7.1,5.9-8.9,6.6a17.93,17.93,0,0,0-5.4,3.7c-1.2,1.3-3,2.4-3.9,2.4s-2.9,1.3-4.5,3c-2.7,2.8-2.7,3-1.2,5.4a12.21,12.21,0,0,0,5.2,3.7c2.3.9,3.5,1.9,3.5,3.1,0,3.4,2.8,3.1,6.5-.6s4.6-4,10-3.6c3.9.3,4.5,1.3,4.5,8.1,0,7.6,2.4,9.9,10.1,9.9,5.9,0,7.5.9,10.2,5.2,2.2,3.5,3.6,3.5,8.9.2,5.5-3.5,7.4-5.7,10.5-12.4a74.73,74.73,0,0,1,5.8-10c7.5-10.5,9.4-18.1,5.5-22-2.4-2.4-3.9-2.5-6.6-.5-3.8,2.9-9.9.9-14.1-4.5-1-1.2-.7-1.6,1.8-2.3s3-1.3,2.7-3c-.3-1.9-.9-2.2-4.7-2.2-5.5,0-6.5-2-1.4-2.8a21.65,21.65,0,0,0,6.1-2.2C944.3,518,941.7,515.7,937.9,518Z" transform="translate(0 -132.31)"/><path class="cls-1" d="M808.3,602.9c-5.3.9-11.3,4.9-11.3,7.7a4.38,4.38,0,0,1-2.3,3.3c-2.4,1.3-4.6,7.1-3.9,10.4.3,1.6,1,1.8,4.7,1.3,2.6-.4,4.6-.3,5,.4.3.5,1.7,1,3,1a2.66,2.66,0,0,0,2.9-2.4c.7-3,9.4-12.1,12.4-13,1.7-.6,2.2-1.5,2.2-4C821,602.1,818.7,601.2,808.3,602.9Z" transform="translate(0 -132.31)"/><path class="cls-1" d="M805.7,635.1c-1.2.7-1.7,2.3-1.7,5.5,0,4.1.1,4.4,2,3.4a3.49,3.49,0,0,1,3.8.1c2.6,1.6,9.3.3,8.5-1.6-.3-.8-1.8-1.5-3.3-1.5-3,0-6-2.2-6-4.5C809,634.5,807.7,634,805.7,635.1Z" transform="translate(0 -132.31)"/></svg>