<svg id="Capa_1" data-name="Capa 1" xmlns="http://www.w3.org/2000/svg" viewBox="0 0 1042.93 759.49"><defs><style>.cls-1{fill:#3e3f3a;}</style></defs><title>espypor</title><path class="cls-1" d="M920.73,221.6a27.26,27.26,0,0,0,8.5-4.3,41.9,41.9,0,0,1,7.7-4.6,10.61,10.61,0,0,0,4.2-3.1c.5-1,2.7-2.7,4.7-3.7a13,13,0,0,0,5.1-4.7,10.42,10.42,0,0,1,5-4.1c4.5-1.8,6.9-7.5,5.1-12.2-.6-1.5-.7-4.8-.4-7.4.6-4.4.5-4.7-2.9-7.3-3.2-2.4-3.6-3.2-3.6-7.2,0-4.8.1-4.8,6.5-4.5,3.8.2,4.2,0,6.2-3.8l2.2-4-3.2-1.9a25.77,25.77,0,0,0-5.4-2.6,4.68,4.68,0,0,1-2.8-3.7c-.5-2-1.2-2.9-2.1-2.5s-2.1-.7-3.1-2.5c-2.6-4.4-5.3-4.6-13-1a47.75,47.75,0,0,1-12.5,3.8c-5.6.6-5.8.7-6.4,3.8s-1,3.3-4.7,3.8c-3,.3-4.8-.1-6.2-1.3-2-1.7-12.5-7.3-15.7-8.4a2.3,2.3,0,0,0-2.7,1.3c-1,1.7-11,5.1-15.4,5.1-1.5,0-3.6-1.6-6.1-4.6a26.21,26.21,0,0,0-7.2-6c-5-2.1-13.7-1.8-18.6.7-3.2,1.6-5.4,2-9.5,1.7-6.4-.6-8-1.7-6.4-4.6,1.6-3.1,1.3-12.8-.5-16.5-3.5-6.9-4.8-7.6-12.9-7-6.5.5-7.4.4-8.3-1.4-1.9-3.4-8.5-7.3-12.5-7.3a28.83,28.83,0,0,1-9.3-2.5c-5.7-2.5-11.7-3.2-14.3-1.6-1.4.9-1.2,9.7.4,13.5.8,1.8.4,1.9-8.4,1.3-6.3-.4-9.9-1.1-11-2.1-1.6-1.4-2-1.4-5.1.9l-3.4,2.5-2.6-2.5c-3.4-3.3-10.3-3.4-15.5-.4s-9.5,2-12.4-3.1c-1.8-3.2-3.6-4.7-8.8-7-3.6-1.7-7.3-3-8.2-3s-2.8,1.4-4.2,3.1l-2.5,3.1-3.3-1.7c-3.6-1.8-6.1-1.4-6.1,1,0,.8-.4,1.5-.9,1.5-1.6,0-10-10.2-12-14.5-2.9-6.2-3.9-6.7-10-5.3-4.6,1-5.6.9-9.4-.9-2.3-1.1-7.3-3.3-11.2-4.7-11.5-4.4-11.5-4.4-11.5-6.9,0-2-.4-2.3-3-1.9-2.4.3-3.1,1-3.6,3.8-.5,3-.9,3.4-2.8,2.8-2.7-.8-5.6-3.4-5.6-4.9,0-.6,1.6-2.6,3.5-4.5,3-2.9,3.5-4,3.5-7.9a16.6,16.6,0,0,0-.8-5.8c-.4-.7-3.1-1.7-6-2.4-4.5-.9-5.6-.8-7.9.6-2.1,1.4-2.7,1.5-3.4.4a6.16,6.16,0,0,1-.9-2.7c0-1.5-.6-1.5-3.1-.1-1.7.9-2.6.4-5.7-3a22.88,22.88,0,0,0-6.4-5c-2.3-.9-2.8-.7-3.3,1a8.19,8.19,0,0,1-3.5,3.4c-4.1,2.1-14.6,4.5-20.5,4.6a27.92,27.92,0,0,0-7,.8,6,6,0,0,1-4.5-.4,30.11,30.11,0,0,0-6.2-2,12.39,12.39,0,0,1-5.4-2.6,5.74,5.74,0,0,0-2.8-1.9,18.55,18.55,0,0,1-5.1-2c-3.5-1.8-4.1-1.9-5.1-.5-1.4,1.9-2.4,1.9-2.4.1,0-.8-1.1-2.8-2.4-4.3-2.5-2.8-2.5-2.8-5.6-1.1a16.44,16.44,0,0,1-6.9,1.8,11.66,11.66,0,0,0-5.7,1.5,7.9,7.9,0,0,1-4.1,1.5c-2.8,0-2.8.4-.1,4.3l2.2,3-3.4-.7a11.6,11.6,0,0,1-5-2.1,6.66,6.66,0,0,0-3.7-1.5,5.41,5.41,0,0,1-3.7-2.5c-1.6-2.4-2.1-2.5-11.4-2.5s-13.7-1-11.3-2.4c1.7-1.1,1.3-2-1.7-3.8-2.4-1.4-4.8-1.6-15-1.2-6.8.2-13.9,1.1-16.3,1.9a26.9,26.9,0,0,1-6,1.5c-1,0-3.5,1-5.6,2.2-3.7,2.2-4.6,2.3-25.7,2.1-20.3-.2-22.2-.3-26.5-2.4-3.2-1.6-7.4-2.4-14.1-2.9-5.2-.4-10.8-1.2-12.3-1.9a18.54,18.54,0,0,0-5.4-1.1A7.14,7.14,0,0,1,322,28c-2.3-2-7-3.1-22.3-4.9-13.6-1.6-14.6-1.9-14.6-3.8,0-.8-1.8-2.8-3.9-4.5l-4-3.2-2,3.4c-3,4.8-5.9,6.5-9.3,5.4a8.63,8.63,0,0,0-5.5,0c-2,.7-3.9.5-6.5-.5-3.3-1.3-4.3-1.3-8.5,0-8.1,2.5-11,2.8-34.3,2.8-12.4,0-24.1.3-26,.7-6.6,1.5-10.7-.3-19.2-8.4-10.4-9.9-15.4-11.8-17.7-6.8L147,10.9l-2.4-3.4c-1.4-1.8-2.5-4.1-2.5-5.1a1.62,1.62,0,0,0-1.4-1.8,11.4,11.4,0,0,1-3-.6c-1-.4-1.9.5-2.9,2.9a7.56,7.56,0,0,1-4.6,4.5c-3.3,1.2-3.8.8-5-3.3l-.6-2.4-4.4,3c-2.5,1.6-5.2,2.8-6,2.7a3.25,3.25,0,0,0-4.1,3.2c0,1.2-1.6,3-4,4.5a21,21,0,0,0-5.5,4.9,8,8,0,0,1-5.5,3.1c-2.7.5-3.9,1.2-3.8,2.3a37.81,37.81,0,0,1-.7,5.4c-.6,3-.5,3.8.7,3.8a4.35,4.35,0,0,1,2.8,1.5,5.4,5.4,0,0,0,3.6,1.5c2.1,0,2.2.3,1.7,3.7a19.1,19.1,0,0,1-1,4.3c-.2.2-2.1-1.5-4.1-3.7s-4.6-4.3-5.8-4.5S84.73,38.6,82,41a32.25,32.25,0,0,1-18.2,8.3c-4.4.4-5.5.2-7.1-1.6-2.9-3.2-7.1-2.7-10.6,1.1-1.8,2.1-2.7,4.1-2.4,5.3.3,1.6-.6,2.5-4.4,4.3-2.6,1.2-5.7,2.2-6.9,2.2a9.4,9.4,0,0,0-5,2.5c-2.6,2.3-2.7,2.6-1.1,3.9,1.9,1.4,1.4,2.6-1.2,2.6-.9,0-2.6,1-3.8,2.3-1.9,2-2.2,3.5-2.2,10.8,0,10.1,1.1,12.6,3.4,8,1.7-3.2,2.3-3.5,5-2.5,2.1.8,4.4,11,2.8,12.6-1.8,1.8-1.5,2.6,1.5,4.1,3.3,1.5,6.7,1.2,8.3-.9a4.72,4.72,0,0,1,3.2-1.4c1.8,0,1.7.3-.9,2.7a21,21,0,0,0-4.2,6.3c-.7,1.9-2,5.2-2.8,7.2-1.3,3.1-1.4,4.2-.3,6.8,1.8,4.3,4.2,3.8,8.2-1.9,2.8-4,3.7-4.7,5.1-4,2.3,1.4,3.7.3,3.7-2.8,0-2.5,0-2.6,2-.8a6,6,0,0,1,2,2.9c0,1.1-3.6,10.9-5.1,13.9-.5.9-.6,3.5-.3,5.7.6,3.9.8,4,4.7,4h4l-2.7,2.5c-1.4,1.3-2.6,3.3-2.6,4.5s-1.8,3.8-4,6c-4.4,4.3-5.2,6-1.8,3.6a8.78,8.78,0,0,1,4.4-1.6,25.17,25.17,0,0,0,6.9-2c5.4-2.3,6.5-2.5,6.5-.8,0,.7-2.3,2.8-5,4.7s-5,3.8-5,4.3-1.1,1.4-2.5,2c-2,.9-2.3,1.4-1.3,2.5s.9,1.7-.3,2.4a6.22,6.22,0,0,1-2.6.9c-1,0-1.3,2.7-1.3,10v10.1l2.8-1.5.55-.31a10.82,10.82,0,0,0,.12,1.33,9.22,9.22,0,0,1-.15,3.63c-.39,1-.3,1.42.25,1.87a3.54,3.54,0,0,1,.69,2.12,4.24,4.24,0,0,0,1.44,2.93c.79.81,1.18,1.56.89,1.67s-.35.45,0,1.11a33.55,33.55,0,0,1,1.13,6.16c.35,3.13.9,5.4,1.29,5.75.89.76.89,1.52,0,1.16-1.29-.5-1.24.56.25,4.09a15.86,15.86,0,0,1,1.43,6.87,18.23,18.23,0,0,0,1.24,6.77,43,43,0,0,1,1.78,7.32,60.39,60.39,0,0,0,2,8.88c2,6.62,2.92,11.41,2.92,15.1,0,5.15-1.83,17.42-3.46,23.23-.85,3-1.69,6.11-1.84,6.81a46.18,46.18,0,0,1-1.28,4.75c-.89,3.08-.94,3.58-.3,4.74,1,1.77,1.73,1.22,1.54-1.06-.1-1.31,0-2.12.59-2.52a8.77,8.77,0,0,0,1.24-3.74,17.45,17.45,0,0,1,1.23-4.59,4.47,4.47,0,0,0,.45-2.53c-.15-.65,0-1.11.29-1.11a.56.56,0,0,1,.55.56c0,.35.54.4,1.48.2s1.49-.15,1.49.2-.4.56-.89.56c-1.29,0-2.43,1.46-2.82,3.58-.4,2.28.49,3.13,3.41,3.18,1.58,0,2.08.21,1.93.66a1.71,1.71,0,0,1-1.34.76c-.54,0-1.28.1-1.58.1-1.09.1-5.24,2.57-5.49,3.23-.45,1.16.15,1.16,2.13,0a4.36,4.36,0,0,1,3.31-.71c1.44.36,1.83,1.32.6,1.32-.4,0-.75.25-.75.5,0,.86-2.52,3-3.51,3s-2.42,1.87-2.42,3.33-2.28,8.28-3,9-.2-2.37,1.33-7.47c.84-2.68,1-4.14.75-4.45s-.7.11-1,1.42c-2,7.67-4.11,17-5,21.81A52.22,52.22,0,0,1,51.2,342c-1.18,2.68-2.42,5.76-2.72,6.77a6.53,6.53,0,0,1-1.28,2.42c-1,.86-.45,2.83,1.48,4.75,1.09,1.11,1.49,1.92,1.24,2.37s-1.73,5.51-3.42,11.41c-2.91,10.4-6.38,19.34-8.8,22.77a20.73,20.73,0,0,0-3.12,9,18.59,18.59,0,0,1-2,5.71c-1.09,2.22-1.78,4-1.48,4,.64,0,.64,1.87.05,2.27a23.66,23.66,0,0,0-2.82,3.84,14,14,0,0,1-3.37,4,10.48,10.48,0,0,0-2.67,2.17l-1.68,1.76,1,2.43a9.52,9.52,0,0,0,1.63,2.77c.35.21.35.61.05,1.22s-.59.7-.89.3-.54-.35-1,.3c-.59.81-.59.71-.34-1,.24-1.51.09-2.12-.75-2.88a6.56,6.56,0,0,0-1.23-1c-.05,0-1.44,1.62-3,3.59-2.38,2.93-3,3.43-3.37,2.78-.64-1.11-1.23-1-1.58.3-.25,1.11-.3,1.11-.94.15s-.79-.91-2,0c-1.88,1.21-1.53,2.63.6,2.42,1.48-.1,1.58,0,1.48,1.37a3.76,3.76,0,0,0,.74,2.47c2,2.22.2,12.93-2.52,15.05a6.36,6.36,0,0,0-2,3.58,11.69,11.69,0,0,1-1.14,3.08c-.29.36-.74,3.79-1,7.58-.59,8.83-.69,9.59-1.83,14.74-.79,3.53-1.23,4.54-2.47,5.6-1.93,1.62-1.93,3,0,4.45l1.53,1.16L.45,496.89-.64,498.1,1,499.67c1.48,1.36,1.93,1.51,3.76,1.21a4.46,4.46,0,0,1,3.76.76c2,1.21,3.56,1.31,5.29.3.79-.46,2.72-.71,5.44-.76,4.9,0,6.24-.6,9.16-4.29a7.64,7.64,0,0,0,2.12-5.05c.15-2.12.45-2.78,1.34-3.28s1.73-2.12,2.82-4.75a78.34,78.34,0,0,1,5.54-10c3.76-5.81,3.86-5.91,6-6.27a7.84,7.84,0,0,1,3.06.11c.65.3.15.5-1.73.6s-2.72.4-2.92,1A22.24,22.24,0,0,1,43,472.15c-2.37,3.68-3.61,7.27-3.26,9.69a7.71,7.71,0,0,1-.3,3.49c-.54,1.11-.5,1.41.35,2,.49.4.79.8.64,1a5.54,5.54,0,0,0,.35,2.52c.64,2.12.64,2.22-.5,3a5.53,5.53,0,0,1-2.57.81c-2,0-5.1,2.27-5.1,3.73s1.34,1.92,3.37,1.06c.84-.4,1.63-.55,1.78-.4.64.71.24,1.62-.79,1.77-.8.1-1.14.5-1.09,1.21,0,1-.25,1-3.12,1-2.18-.05-3.31.2-3.86.76-.74.7-.59.91,1.24,2.22,1.53,1.06,2,1.71,2,2.83,0,1.81-.35,1.86-1,.2-.5-1.37-2.48-2.43-3.66-2s-1.39-.61-.5-1.31c.6-.56.6-.76.1-1.06a1.79,1.79,0,0,1-.64-1.27c0-1.61-1.54-2.07-3.42-1a4.45,4.45,0,0,1-3.31.61c-1.78-.35-5.39.15-5.39.76,0,.25.89.91,1.93,1.46,2.42,1.21,4.2,3.64,3.76,5a2.67,2.67,0,0,0,.69,2.32c.89,1.16,1,2.07,1,6.11s-.2,5.1-1.24,7.22a10.13,10.13,0,0,1-1.73,2.78c-.74.45-.59,1.26.2,1a2.33,2.33,0,0,1,1.68.25c.74.4,1.14.3,1.83-.45a3.54,3.54,0,0,1,2.92-1,13.88,13.88,0,0,0,4-.76,15,15,0,0,1,3.46-.76,6.19,6.19,0,0,0,2.72-.76c.69-.4,2.42-1.31,3.86-2,1.83-.85,2.57-1.56,2.57-2.27s.6-1.31,1.54-1.82c1.83-.9,3.61-.4,6.13,1.87a6.27,6.27,0,0,0,5,1.52c.84-.05,1.58-3.13,1-4.24a2.43,2.43,0,0,1-.1-1.77,3.59,3.59,0,0,0,.24-1.52.55.55,0,0,1,.6-.6c.44,0,.64.6.59,1.82,0,1,.15,1.92.4,2.07s.29,1.76.15,3.68c-.25,2.63-.2,3.49.34,4a2,2,0,0,0,1.19.46c.3-.11,1.19.6,2,1.46l1.53,1.67H61.05c-1.14,0-2.28-.56-3.76-1.82s-2.18-1.62-2.47-1.11-.5.4-.75-.31a1,1,0,0,0-1.23-.65.89.89,0,0,1-1.14-.46c-.5-1.26-1.44-.8-1.09.56.2.71.2,1.26.1,1.26-.64,0-3.71-3.43-4-4.44a3.79,3.79,0,0,0-3.26-2.12c-.94,0,1,3,3.46,5.1,3.66,3.33,4.6,5.75,5.54,14.34,1.14,10.25,1.14,11.36.1,13.33a29.52,29.52,0,0,0-1.78,4.34c-.4,1.36-1.49,4.9-2.33,7.82-1.43,4.75-1.78,5.41-3.16,6.06-1.78.86-2.23,2.53-.89,3.29,2.77,1.46,5,3.43,5.34,4.49a7.31,7.31,0,0,1-.2,2.88,7,7,0,0,0,0,3.23,9.38,9.38,0,0,1-.39,6.61,4.1,4.1,0,0,0,.44,4.8c.69.71.35,6.92-.69,12.47-.55,2.73-.5,3.38.2,4.85,1.43,3.13,1.53,5.2.44,7.77a31.29,31.29,0,0,0-1.58,6,12.77,12.77,0,0,1-2,5.66c-1.48,2.07-2.23,6.31-1.48,8.38.64,1.87-1.59,6.16-3.67,7-.69.25-.79.65-.54,1.51,1,3.38.89,4.19-1.19,6.46a9.75,9.75,0,0,0-2,2.78,2.25,2.25,0,0,1-.79,1.26,1.87,1.87,0,0,0-.54,1.77,1.62,1.62,0,0,1-.74,1.67c-1.24.8-1.19,2.22.1,1.81.64-.2,1.38.11,2.22,1a6.59,6.59,0,0,0,1.54,1.32A21,21,0,0,0,41,667.45c1.59-1.57,2.28-1.87,3.66-1.77s1.88-.1,2.38-.86,1.14-1.06,3.21-1.06c1.39,0,2.68-.2,2.82-.45.45-.71,4.31-1.16,5.05-.51.94.81,1.73.1,1.58-1.46-.1-1.06,0-1.36.84-1.36a4,4,0,0,0,1.64-.41,1.1,1.1,0,0,1,1.23,0c.35.31,2.08.36,4.26.15,2.62-.25,3.66-.2,3.86.26.29.85,3.21,1.31,8.46,1.26,4.2,0,4.8.1,6.58,1.31s2.07,1.26,3.16.66A3.53,3.53,0,0,1,92,662.9a4.53,4.53,0,0,0,2.42-.25,4.3,4.3,0,0,1,4.46.3,6.76,6.76,0,0,0,2,1.06c1.49.41,10.44,5.66,14.5,8.44,4.3,3,5.29,3.23,7.87,1.92a20.41,20.41,0,0,0,3.61-2.53,29.83,29.83,0,0,1,3.71-2.78c1.23-.75,1.78-1.21,1.23-1s-1.68.56-2.52.81a6.51,6.51,0,0,0-2.82,2.12,13.29,13.29,0,0,1-3,2.58c-1.58.86-2,.86-3.41.25l-1.58-.66,2-.6c2.37-.71,6.58-3.13,6.58-3.79,0-.25.59-.55,1.38-.76a10.77,10.77,0,0,0,2.52-1.06,3.56,3.56,0,0,1,2.58-.45,5.69,5.69,0,0,0,2.62-.2c1.73-.66,7.72-6.77,7.77-7.88,0-.56.89-1.72,2-2.57,1.78-1.47,2.38-1.67,5.3-1.77,4.85-.1,6.13.1,6.77,1,1,1.34,1.35.31.66-1.48h2a19.36,19.36,0,0,0,7.6-1.6c2.6-1.4,4.9-1.5,13.2-.9,10,.7,14,1.9,16.5,4.9a6.1,6.1,0,0,0,4.1,1.6c1.5,0,4.4,1.3,6.6,3.1a70.92,70.92,0,0,0,8.9,5.6c8.6,4.4,11.4,7.2,15.1,14.9s4.1,10.3,2.3,12.1c-.9.9-.9,2.3.1,5.7,1.1,4.1,1.6,4.6,6.2,6.3,2.7.9,5.3,2.2,5.7,2.8,1.2,1.5,3.1,10,3.1,13.9,0,1.9.4,3.7.9,4.1s1.7,2.7,2.6,5.4c1,3.2,2.4,5.2,4,5.9a3.92,3.92,0,0,1,2.5,3.5c0,3.7,3.3,6.1,7.3,5.3,4.6-.9,6.3,0,8.8,4.3,1.6,3,3.2,4.1,8.3,5.9a61.32,61.32,0,0,0,12.7,2.8c10.8,1.1,14.6-2.1,23.6-19.3,4.5-8.7,6.8-11.9,10-14.2,2.2-1.6,4.4-3.4,4.7-4s2.8-1.3,5.4-1.7a23.24,23.24,0,0,0,6.7-1.8c1.1-.6,6.3-1.1,11.5-1.1h9.5l.3-2.7c.3-2.3,1.1-2.9,5.5-4.3,3.9-1.3,6.4-3,9.8-6.8l4.5-5,12.5-2.1c15.8-2.5,42-2.7,48.8-.2,6.5,2.4,11.8,2.1,16.3-1,3.2-2.2,4.4-2.5,8.5-2,2.6.3,9.4.9,15.1,1.2,7.5.5,10.5,1,10.9,2s2.6,1.4,8.4,1.4c9.6,0,12.5-1.2,13.3-5.4.9-4.8,6.5-7.6,14.9-7.6,6.4,0,6.5,0,11.3,5s8.7,6.3,9.8,3.5a2.26,2.26,0,0,1,1.9-1.5c1.8,0,6.4-5.6,9.1-11.1,1.2-2.4,3.2-4.8,4.4-5.4a3.72,3.72,0,0,0,2.2-3.3,18.49,18.49,0,0,1,1.8-6c2.7-5.2,4.5-12.8,3.9-15.3-.4-1.6,0-2.3,1.4-2.6,1.1-.3,3.8-3.2,5.9-6.3,4.3-6.4,11.7-12,15.6-12,1.9,0,2.8-.7,3.5-3,.7-1.7,1.8-3,2.8-3s2.8-1.3,4.2-2.9c1.9-2.2,3.8-3,7.8-3.6s5.6-.4,6.1.6c.7,1,1.7,1,5.7,0a106.37,106.37,0,0,1,14.8-2c10.5-.8,13.8-1.9,15.5-5.1.9-1.6.7-2.1-.7-2.6-4.8-1.5-6.5-2.6-8.2-5.5l-1.9-3.1,3.3-3.4a31.29,31.29,0,0,0,5.5-9,43.71,43.71,0,0,1,3.9-8.3,24.79,24.79,0,0,0,3.1-7.1c3-11.7,4-13.9,6.8-14.2,1.8-.2,2.8-1,3-2.3a71,71,0,0,1,1.4-7.3c.9-4.3,1.5-5.2,3.3-5.2,1.6,0,2.9-1.3,4.6-4.6,1.9-3.7,3.6-5.2,8.4-7.6a54.9,54.9,0,0,0,7.8-4.6,18.08,18.08,0,0,1,5-2.7c2.1-.7,3.8-2.3,5.1-5,1.8-3.5,2.7-4.1,6.3-4.6a14.18,14.18,0,0,0,7.7-3.7c2-1.8,4.3-3.2,5.1-3.2,2.1,0,2.9-1.9,1.7-4.3a23.46,23.46,0,0,1-1.6-4.9c-.5-2.4-1.5-3-7.9-4.8-10.8-3.2-12.1-3.8-16.5-8.3s-7-11.7-9.1-24.3a45.54,45.54,0,0,0-4.1-11c-3-5.5-3.2-6.4-2.7-13.5s1-8.6,7.8-21.5c4-7.7,9-15.9,11.1-18.3a59.69,59.69,0,0,0,7.2-11.5c2.3-4.8,4.7-8.2,7.5-10.4a27.86,27.86,0,0,0,6.1-7c2.7-4.9,8.8-12.5,12.3-15.2,1.5-1.2,2.7-3,2.7-4.1,0-2.6,2.5-7.5,6.1-11.9,1.6-1.9,2.9-4.7,2.9-6.2,0-3.6,7.4-9.4,13.3-10.3,5.2-.9,8.5-2.6,11.6-5.9,2.6-2.8,2.3-5.6-.7-5.6a6.23,6.23,0,0,1-3.7-2,5.93,5.93,0,0,0-3.1-2c-5.1,0-1.1-6.2,11.4-17.6,11-10,15.6-12.2,19.3-8.8,1.8,1.6,2,1.6,4-1,2.9-3.6,4.1-4.2,19.7-8.6,7.5-2.1,16.4-4.9,19.7-6.1a84.25,84.25,0,0,1,13.5-2.9c11.7-1.1,16.5-3.9,21.8-12.8,3-4.9,5.8-8.2,9-10.4,2.6-1.7,6.3-4.4,8.2-5.9C905.63,226.7,913,223.6,920.73,221.6ZM66,288.92l-.75,1.46v-1.56A3.51,3.51,0,0,1,65.6,287c.45-.51,1.14-.46,1.14.1A7.33,7.33,0,0,1,66,288.92ZM316.25,405.64l23.6,13.9a11.36,11.36,0,0,1-.18,19.68l-95.25,53.89a11.36,11.36,0,0,1-17-10l1-109.44A11.36,11.36,0,0,1,245.55,364l23.6,13.9L376.4,195.83a15.38,15.38,0,0,1,21.05-5.44l20.62,12.15a15.38,15.38,0,0,1,5.44,21Zm293.88-83.75A11.36,11.36,0,0,1,593,331.58l-23.6-13.9L462.15,499.74a15.37,15.37,0,0,1-21,5.44L420.49,493a15.36,15.36,0,0,1-5.44-21L522.3,289.93,498.7,276a11.36,11.36,0,0,1,.18-19.68l95.26-53.88a11.36,11.36,0,0,1,17,10Z" transform="translate(1.45 0.09)"/><path class="cls-1" d="M1035.58,389.61c-1.7-2.1-3.1-4.6-3.1-5.5,0-1.2-.9-1.6-3.4-1.6s-3.6-.5-3.8-1.8-.5-1.3-1,.5-1.5,2.2-7.4,2.8c-3.8.3-7.8.7-8.9.8-2.3.2-3.1,3.9-2,9.4l.6,3.4,5.5-.7c4.7-.5,5.8-.4,7.7,1.4,3.3,3,17.1,10.2,19.5,10.2,1.7,0,2.2-.6,2.2-2.8C1041.48,400.91,1038.88,393.81,1035.58,389.61Z" transform="translate(1.45 0.09)"/><path class="cls-1" d="M967.88,413c-3.8,2.9-9.9.9-14.1-4.5-1-1.2-.7-1.6,1.8-2.3s3-1.3,2.7-3c-.3-1.9-.9-2.2-4.7-2.2-5.5,0-6.5-2-1.4-2.8a21.65,21.65,0,0,0,6.1-2.2c3.5-2.5.9-4.8-2.9-2.5-2.4,1.4-16.9,6-18.9,6-.9,0-3.4,1.3-5.5,3s-4.6,3-5.7,3-4.5,2.4-7.6,5.3-7.1,5.9-8.9,6.6a17.93,17.93,0,0,0-5.4,3.7c-1.2,1.3-3,2.4-3.9,2.4s-2.9,1.3-4.5,3c-2.7,2.8-2.7,3-1.2,5.4a12.21,12.21,0,0,0,5.2,3.7c2.3.9,3.5,1.9,3.5,3.1,0,3.4,2.8,3.1,6.5-.6s4.6-4,10-3.6c3.9.3,4.5,1.3,4.5,8.1,0,7.6,2.4,9.9,10.1,9.9,5.9,0,7.5.9,10.2,5.2,2.2,3.5,3.6,3.5,8.9.2,5.5-3.5,7.4-5.7,10.5-12.4a74.73,74.73,0,0,1,5.8-10c7.5-10.5,9.4-18.1,5.5-22C972.08,411.11,970.58,411,967.88,413Z" transform="translate(1.45 0.09)"/><path class="cls-1" d="M825.78,478.41c-5.3.9-11.3,4.9-11.3,7.7a4.38,4.38,0,0,1-2.3,3.3c-2.4,1.3-4.6,7.1-3.9,10.4.3,1.6,1,1.8,4.7,1.3,2.6-.4,4.6-.3,5,.4.3.5,1.7,1,3,1a2.66,2.66,0,0,0,2.9-2.4c.7-3,9.4-12.1,12.4-13,1.7-.6,2.2-1.5,2.2-4C838.48,477.61,836.18,476.71,825.78,478.41Z" transform="translate(1.45 0.09)"/><path class="cls-1" d="M832.48,516.51c-3,0-6-2.2-6-4.5,0-2-1.3-2.5-3.3-1.4-1.2.7-1.7,2.3-1.7,5.5,0,4.1.1,4.4,2,3.4a3.49,3.49,0,0,1,3.8.1c2.6,1.6,9.3.3,8.5-1.6C835.48,517.21,834,516.51,832.48,516.51Z" transform="translate(1.45 0.09)"/></svg>